<svg width="792" height="254" viewBox="0 0 792 254" fill="none" xmlns="http://www.w3.org/2000/svg">
<path d="M166.961 222.006C147.87 240.973 124.643 250.39 97.2803 250.258C69.9175 250.125 46.829 240.479 28.0148 221.319C9.20666 202.16 -0.131146 178.985 0.00139113 151.795C0.133928 124.455 9.70066 101.344 28.7016 82.4609C47.7025 63.578 70.8814 54.2028 98.2381 54.3352C125.613 54.4677 148.747 64.0686 167.639 83.1381C186.532 102.208 195.915 125.415 195.788 152.761C195.656 179.945 186.047 203.027 166.961 222.006ZM45.5187 204.273C59.3748 218.466 76.6678 225.611 97.3977 225.708C118.128 225.804 135.49 218.827 149.485 204.778C163.509 190.729 170.573 173.36 170.675 152.671C170.754 131.814 163.865 114.288 150.009 100.095C136.153 85.901 118.857 78.7529 98.1207 78.6506C77.4209 78.5483 60.0586 85.5248 46.0338 99.5801C32.009 113.635 24.9484 131.092 24.852 151.949C24.7436 172.644 31.6325 190.085 45.5187 204.273Z" fill="white"/>
<path d="M281.41 109.196C297.248 109.281 309.917 114.337 319.418 124.365C328.918 134.394 333.623 147.937 333.533 164.996L333.126 247.829L309.631 247.712L310.029 166.224C310.083 155.257 307.155 146.745 301.245 140.69C295.335 134.634 287.16 131.579 276.72 131.525C265.008 131.471 255.538 135.068 248.309 142.315C241.079 149.562 237.423 160.743 237.338 175.858L236.986 247.396L213.491 247.278L214.394 58.3986L237.89 58.5159L237.528 131.914C247.161 116.678 261.788 109.106 281.41 109.196Z" fill="white"/>
<path d="M470.148 231.514C456.213 245.117 439.345 251.871 419.543 251.775C399.741 251.678 382.987 244.756 369.281 231.008C355.576 217.278 348.771 200.423 348.868 180.445C348.964 160.467 355.934 143.687 369.778 130.108C383.634 116.504 400.455 109.75 420.239 109.846C440.023 109.943 456.822 116.865 470.636 130.613C484.438 144.356 491.287 161.21 491.185 181.176C491.083 201.143 484.07 217.922 470.148 231.514ZM419.66 228.805C433.161 228.871 444.523 224.338 453.746 215.207C462.97 206.076 467.618 194.675 467.69 181.005C467.762 167.335 463.244 155.898 454.135 146.694C445.026 137.49 433.706 132.849 420.175 132.771C406.849 132.711 395.575 137.244 386.351 146.369C377.128 155.494 372.465 166.898 372.363 180.58C372.303 194.25 376.839 205.687 385.972 214.891C395.105 224.095 406.334 228.745 419.66 228.841V228.805Z" fill="white"/>
<path d="M584.235 110.614C603.14 110.704 619.219 117.662 632.472 131.489C645.726 145.315 652.305 162.122 652.208 181.907C652.118 201.699 645.377 218.442 631.984 232.136C618.592 245.83 602.444 252.632 583.539 252.542C561.219 252.428 544.251 243.438 532.636 225.572L532.519 248.777L509.023 248.668L509.927 59.7887L533.422 59.9061L533.043 137.078C544.844 119.327 561.909 110.505 584.235 110.614ZM580.684 229.861C594.184 229.921 605.549 225.343 614.779 216.128C624.008 206.912 628.653 195.475 628.713 181.817C628.785 168.147 624.267 156.656 615.158 147.344C606.049 138.032 594.729 133.343 581.199 133.277C567.517 133.216 556.071 137.794 546.86 147.01C537.648 156.226 533.001 167.662 532.916 181.32C532.844 194.99 537.377 206.479 546.516 215.784C555.655 225.09 567.044 229.783 580.684 229.861Z" fill="white"/>
<path d="M767.84 114.966L791.335 115.083L790.703 249.996L767.208 249.879L767.298 230.448C757.659 245.701 743.038 253.276 723.435 253.174C707.596 253.096 694.945 248.04 685.481 238.005C676.017 227.971 671.311 214.412 671.366 197.329L671.772 114.496L695.267 114.614L694.87 196.101C694.816 207.075 697.743 215.586 703.653 221.635C709.563 227.685 717.741 230.74 728.188 230.8C739.881 230.854 749.348 227.243 756.59 219.965C763.831 212.688 767.488 201.507 767.56 186.422L767.84 114.966ZM749.297 96.5283L726.615 96.4199L699.506 60.6647L727.862 60.8091L749.297 96.5283Z" fill="white"/>
<path d="M126.514 1.23525L144.298 9.75873C140.207 23.8261 133.074 32.6355 122.899 36.1869C112.724 39.7384 99.9462 37.2493 84.566 28.7198C72.5473 22.249 63.9384 19.6817 58.7394 21.018C53.5403 22.3543 49.5793 27.4497 46.8563 36.3043L29.0723 27.9885C33.1869 13.9392 40.4192 5.13884 50.7691 1.58739C61.119 -1.96406 73.716 0.443704 88.5601 8.81067C100.892 15.432 109.627 18.0805 114.766 16.7563C119.905 15.432 123.821 10.2583 126.514 1.23525Z" fill="white"/>
</svg>
